<svg width="47" height="35" viewBox="0 0 47 35" fill="auto" xmlns="http://www.w3.org/2000/svg">
<path d="M17.117 30.9599C16.7499 31.0333 16.5118 31.3905 16.5853 31.7576C16.6587 32.1247 17.0159 32.3628 17.383 32.2893L17.117 30.9599ZM23.5 30.3744L23.633 29.7096L23.5 29.683L23.367 29.7096L23.5 30.3744ZM29.617 32.2893C29.9841 32.3628 30.3413 32.1247 30.4147 31.7576C30.4882 31.3905 30.2501 31.0333 29.883 30.9599L29.617 32.2893ZM45.375 32.3025C45.7494 32.3025 46.0529 31.999 46.0529 31.6246C46.0529 31.2502 45.7494 30.9467 45.375 30.9467V32.3025ZM44.75 31.6246L44.2706 31.1453L43.1137 32.3025H44.75V31.6246ZM46.4794 30.8537C46.7441 30.5889 46.7441 30.1597 46.4793 29.895C46.2145 29.6303 45.7853 29.6303 45.5206 29.8951L46.4794 30.8537ZM1.625 30.9467C1.25061 30.9467 0.947108 31.2502 0.947108 31.6246C0.947108 31.999 1.25061 32.3025 1.625 32.3025V30.9467ZM2.25 31.6246V32.3025H3.88634L2.72939 31.1453L2.25 31.6246ZM1.47939 29.8951C1.21468 29.6303 0.785466 29.6303 0.520706 29.895C0.255946 30.1597 0.255903 30.5889 0.520609 30.8537L1.47939 29.8951ZM20.8356 32.8424C20.4723 32.9332 20.2515 33.3012 20.3424 33.6644C20.4332 34.0276 20.8012 34.2485 21.1644 34.1576L20.8356 32.8424ZM23.5 32.8749L23.6644 32.2172L23.5 32.1761L23.3356 32.2172L23.5 32.8749ZM25.8356 34.1576C26.1988 34.2485 26.5668 34.0276 26.6576 33.6644C26.7485 33.3012 26.5277 32.9332 26.1644 32.8424L25.8356 34.1576ZM6.11615 2.96379L6.14864 2.28667L6.14864 2.28667L6.11615 2.96379ZM23.3726 1.00675L23.4438 1.68089L23.4438 1.68089L23.3726 1.00675ZM23.6279 1.00636L23.559 1.68074L23.559 1.68074L23.6279 1.00636ZM40.8944 2.95831L40.8617 2.2812L40.8617 2.2812L40.8944 2.95831ZM23.2484 27.2991L23.3814 27.9638L23.3814 27.9638L23.2484 27.2991ZM11.1214 29.725L10.9884 29.0602L10.9884 29.0602L11.1214 29.725ZM35.2476 29.7224L35.108 30.3858L35.108 30.3858L35.2476 29.7224ZM23.7511 27.3016L23.6114 27.9649L23.6114 27.9649L23.7511 27.3016ZM1.67789 2.86881C1.67789 2.49442 1.37439 2.19091 1 2.19091C0.625611 2.19091 0.322108 2.49442 0.322108 2.86881H1.67789ZM46.6779 2.86881C46.6779 2.49442 46.3744 2.19091 46 2.19091C45.6256 2.19091 45.3221 2.49442 45.3221 2.86881H46.6779ZM12.25 32.8749V33.5528H12.2876L12.3249 33.5486L12.25 32.8749ZM23.3966 31.6361L23.3217 30.9624L23.3217 30.9624L23.3966 31.6361ZM23.6045 31.6305L23.6434 30.9537L23.6434 30.9537L23.6045 31.6305ZM35.375 32.8749L35.3374 33.5517L35.3562 33.5528H35.375V32.8749ZM12.25 11.8327L11.9397 11.23L10.752 11.8415L11.9468 12.439L12.25 11.8327ZM23.5893 5.99444L23.8996 5.39174L23.5893 5.23197L23.279 5.39174L23.5893 5.99444ZM34.9286 11.8327L35.2318 12.439L36.4266 11.8415L35.2389 11.23L34.9286 11.8327ZM23.5893 17.5035L23.2861 18.1098L23.5893 18.2614L23.8925 18.1098L23.5893 17.5035ZM15.5871 15.448L15.9011 14.8472L14.9092 14.3288V15.448H15.5871ZM23.5893 19.63L23.2753 20.2308L23.5892 20.3948L23.9031 20.2309L23.5893 19.63ZM31.5977 15.448H32.2756V14.3292L31.2839 14.8471L31.5977 15.448ZM31.5977 21.1186L31.8674 21.7405L32.2756 21.5635V21.1186H31.5977ZM23.5893 24.592L23.3194 25.2138L23.5892 25.3309L23.859 25.2139L23.5893 24.592ZM15.5871 21.1186H14.9092V21.5633L15.3172 21.7404L15.5871 21.1186ZM34.8978 12.5415C34.8978 12.1671 34.5943 11.8636 34.2199 11.8636C33.8455 11.8636 33.542 12.1671 33.542 12.5415H34.8978ZM33.542 20.3389C33.542 20.7132 33.8455 21.0167 34.2199 21.0167C34.5943 21.0167 34.8978 20.7132 34.8978 20.3389H33.542ZM17.383 32.2893L23.633 31.0391L23.367 29.7096L17.117 30.9599L17.383 32.2893ZM23.367 31.0391L29.617 32.2893L29.883 30.9599L23.633 29.7096L23.367 31.0391ZM45.375 30.9467H44.75V32.3025H45.375V30.9467ZM45.2294 32.1039L46.4794 30.8537L45.5206 29.8951L44.2706 31.1453L45.2294 32.1039ZM1.625 32.3025H2.25V30.9467H1.625V32.3025ZM2.72939 31.1453L1.47939 29.8951L0.520609 30.8537L1.77061 32.1039L2.72939 31.1453ZM21.1644 34.1576L23.6644 33.5325L23.3356 32.2172L20.8356 32.8424L21.1644 34.1576ZM23.3356 33.5325L25.8356 34.1576L26.1644 32.8424L23.6644 32.2172L23.3356 33.5325ZM6.08365 3.6409C9.21565 3.79122 11.9497 3.46638 14.7003 3.02355C17.4639 2.57863 20.2018 2.0233 23.4438 1.68089L23.3014 0.332606C20.0111 0.680123 17.1846 1.25035 14.4848 1.685C11.7722 2.12172 9.1442 2.43044 6.14864 2.28667L6.08365 3.6409ZM23.559 1.68074C26.9249 2.02476 29.5442 2.58411 32.2192 3.03055C34.8869 3.4758 37.5588 3.79779 40.927 3.63541L40.8617 2.2812C37.6268 2.43716 35.0598 2.13011 32.4424 1.69326C29.8321 1.25761 27.1197 0.681824 23.6968 0.331983L23.559 1.68074ZM4.07211 4.23787V28.499H5.42789V4.23787H4.07211ZM41.5721 4.22758V28.499H42.9279V4.22758H41.5721ZM23.1154 26.6343L10.9884 29.0602L11.2543 30.3897L23.3814 27.9638L23.1154 26.6343ZM10.8762 29.0713H6V30.4271H10.8762V29.0713ZM41 29.0713H35.5052V30.4271H41V29.0713ZM35.3873 29.0591L23.8907 26.6383L23.6114 27.9649L35.108 30.3858L35.3873 29.0591ZM0.322108 2.86881V31.6246H1.67789V2.86881H0.322108ZM46.6779 31.6246V2.86881H45.3221V31.6246H46.6779ZM2.25 33.5528H12.25V32.197H2.25V33.5528ZM12.3249 33.5486L23.4714 32.3099L23.3217 30.9624L12.1751 32.2011L12.3249 33.5486ZM23.5656 32.3073C25.843 32.4382 27.8607 32.696 29.7746 32.9488C31.6816 33.2006 33.4998 33.4496 35.3374 33.5517L35.4126 32.198C33.6371 32.0994 31.8747 31.8586 29.9521 31.6047C28.0363 31.3517 25.9752 31.0877 23.6434 30.9537L23.5656 32.3073ZM35.375 33.5528H44.75V32.197H35.375V33.5528ZM45.3221 31.6246C45.3221 31.9408 45.0658 32.197 44.75 32.197V33.5528C45.8148 33.5528 46.6779 32.6894 46.6779 31.6246H45.3221ZM0.322108 31.6246C0.322108 32.6894 1.18513 33.5528 2.25 33.5528V32.197C1.93416 32.197 1.67789 31.9409 1.67789 31.6246H0.322108ZM35.5052 29.0713C35.4656 29.0713 35.4261 29.0672 35.3873 29.0591L35.108 30.3858C35.2386 30.4133 35.3717 30.4271 35.5052 30.4271V29.0713ZM10.9884 29.0602C10.9515 29.0676 10.9139 29.0713 10.8762 29.0713V30.4271C11.0032 30.4271 11.1298 30.4146 11.2543 30.3897L10.9884 29.0602ZM23.3814 27.9638C23.4573 27.9486 23.5356 27.949 23.6114 27.9649L23.8908 26.6383C23.6352 26.5845 23.3715 26.5831 23.1154 26.6343L23.3814 27.9638ZM41.5721 28.499C41.5721 28.8152 41.3158 29.0713 41 29.0713V30.4271C42.0649 30.4271 42.9279 29.5637 42.9279 28.499H41.5721ZM4.07211 28.499C4.07211 29.5637 4.93513 30.4271 6 30.4271V29.0713C5.68416 29.0713 5.42789 28.8152 5.42789 28.499H4.07211ZM23.4438 1.68089C23.4811 1.67695 23.5212 1.67688 23.559 1.68074L23.6968 0.331983C23.5664 0.318648 23.4323 0.318782 23.3014 0.332606L23.4438 1.68089ZM23.4714 32.3099C23.5028 32.3064 23.5347 32.3055 23.5656 32.3073L23.6434 30.9537C23.5359 30.9476 23.428 30.9506 23.3217 30.9624L23.4714 32.3099ZM40.927 3.63541C41.2867 3.61807 41.5721 3.89914 41.5721 4.22758H42.9279C42.9279 3.09312 41.963 2.22811 40.8617 2.2812L40.927 3.63541ZM6.14864 2.28667C5.04747 2.23382 4.07211 3.09607 4.07211 4.23787H5.42789C5.42789 3.9093 5.71644 3.62327 6.08365 3.6409L6.14864 2.28667ZM12.5603 12.4354L23.8996 6.59714L23.279 5.39174L11.9397 11.23L12.5603 12.4354ZM23.279 6.59714L34.6183 12.4354L35.2389 11.23L23.8996 5.39174L23.279 6.59714ZM34.6254 11.2264L23.2861 16.8972L23.8925 18.1098L35.2318 12.439L34.6254 11.2264ZM23.8925 16.8972L12.5532 11.2264L11.9468 12.439L23.2861 18.1098L23.8925 16.8972ZM15.2731 16.0488L23.2753 20.2308L23.9033 19.0292L15.9011 14.8472L15.2731 16.0488ZM23.9031 20.2309L31.9115 16.0489L31.2839 14.8471L23.2755 19.0291L23.9031 20.2309ZM30.9198 15.448V21.1186H32.2756V15.448H30.9198ZM31.3279 20.4967L23.3196 23.97L23.859 25.2139L31.8674 21.7405L31.3279 20.4967ZM23.8592 23.9701L15.857 20.4968L15.3172 21.7404L23.3194 25.2138L23.8592 23.9701ZM16.265 21.1186V15.448H14.9092V21.1186H16.265ZM33.542 12.5415V20.3389H34.8978V12.5415H33.542ZM1 32.3025H46V30.9467H1V32.3025Z" fill="auto"/>
</svg>
